<?xml version="1.0" encoding="UTF-8" standalone="no"?>
<!-- Generator: Adobe Illustrator 18.1.0, SVG Export Plug-In . SVG Version: 6.00 Build 0)  -->

<svg
   xmlns:dc="http://purl.org/dc/elements/1.1/"
   xmlns:cc="http://creativecommons.org/ns#"
   xmlns:rdf="http://www.w3.org/1999/02/22-rdf-syntax-ns#"
   xmlns:svg="http://www.w3.org/2000/svg"
   xmlns="http://www.w3.org/2000/svg"
   xmlns:sodipodi="http://sodipodi.sourceforge.net/DTD/sodipodi-0.dtd"
   xmlns:inkscape="http://www.inkscape.org/namespaces/inkscape"
   version="1.1"
   id="Layer_1"
   x="0px"
   y="0px"
   viewBox="0 0 500 500"
   enable-background="new 0 0 500 500"
   xml:space="preserve"
   inkscape:version="0.91 r13725"
   sodipodi:docname="drum-icon.svg"><metadata
     id="metadata33"><rdf:RDF><cc:Work
         rdf:about=""><dc:format>image/svg+xml</dc:format><dc:type
           rdf:resource="http://purl.org/dc/dcmitype/StillImage" /></cc:Work></rdf:RDF></metadata><defs
     id="defs31" /><sodipodi:namedview
     pagecolor="#ffffff"
     bordercolor="#666666"
     borderopacity="1"
     objecttolerance="10"
     gridtolerance="10"
     guidetolerance="10"
     inkscape:pageopacity="0"
     inkscape:pageshadow="2"
     inkscape:window-width="1216"
     inkscape:window-height="788"
     id="namedview29"
     showgrid="false"
     inkscape:zoom="0.472"
     inkscape:cx="250"
     inkscape:cy="250"
     inkscape:window-x="0"
     inkscape:window-y="0"
     inkscape:window-maximized="0"
     inkscape:current-layer="Layer_1" /><rect
     style="fill:#efefef;fill-opacity:0.93725491"
     id="rect5"
     height="10.699501"
     width="124.69419"
     transform="matrix(-0.93874372,-0.34461605,0.34461605,-0.93874372,0,0)"
     y="4.433413"
     x="-438.86569" /><polygon
     style="fill:#efefef;fill-opacity:0.93725491"
     id="polygon7"
     points="281.3,145.4 398.4,188.3 411,153.8 293.9,110.8 " /><rect
     style="fill:#efefef;fill-opacity:0.93725491"
     id="rect9"
     height="10.699501"
     width="124.69419"
     transform="matrix(-0.93874372,-0.34461605,0.34461605,-0.93874372,0,0)"
     y="-57.42688"
     x="-438.85916" /><rect
     style="fill:#efefef;fill-opacity:0.93725491"
     id="rect11"
     height="10.699501"
     width="124.69419"
     transform="matrix(0.93874372,-0.34461605,0.34461605,0.93874372,0,0)"
     y="165.54866"
     x="53.072086" /><rect
     style="fill:#efefef;fill-opacity:0.93725491"
     id="rect13"
     height="36.798286"
     width="124.69419"
     transform="matrix(-0.93874372,0.34461605,-0.34461605,-0.93874372,0,0)"
     y="-220.12027"
     x="-177.73352" /><rect
     style="fill:#efefef;fill-opacity:0.93725491"
     id="rect15"
     height="124.69419"
     width="10.699501"
     transform="matrix(-0.34461605,-0.93874372,0.93874372,-0.34461605,0,0)"
     y="53.101326"
     x="-237.92838" /><path
     style="fill:#efefef;fill-opacity:0.93725491"
     inkscape:connector-curvature="0"
     id="path17"
     d="m 262,204.7 c -60.2,0 -109.1,48.9 -109.1,109.1 0,60.2 48.9,109.1 109.1,109.1 60.2,0 109.1,-48.9 109.1,-109.1 0.1,-60.2 -49,-109.1 -109.1,-109.1 z" /><path
     style="fill:#efefef;fill-opacity:0.93725491;opacity:1"
     inkscape:connector-curvature="0"
     id="path19"
     d="m 262,182.1 c -72.8,0 -131.7,58.9 -131.7,131.7 0,72.8 59,131.7 131.7,131.7 72.8,0 131.7,-59 131.7,-131.7 0,-72.8 -59,-131.7 -131.7,-131.7 z m 0,250 c -65.3,0 -118.3,-53 -118.3,-118.3 0,-65.3 53,-118.3 118.3,-118.3 65.3,0 118.3,53 118.3,118.3 0,65.3 -53,118.3 -118.3,118.3 z" /><path
     style="fill:#efefef;fill-opacity:0.93725491"
     inkscape:connector-curvature="0"
     id="path21"
     d="m 378.1,221.3 121.9,0 c 0,-4.2 -27.3,-7.7 -60.9,-7.7 -33.7,-0.2 -61,3.3 -61,7.7 z" /><path
     style="fill:#efefef;fill-opacity:0.93725491"
     inkscape:connector-curvature="0"
     id="path23"
     d="m 439.1,235.9 c 33.7,0 60.9,-3.5 60.9,-7.7 l -121.9,0 c 0,4.2 27.3,7.7 61,7.7 z" /><polygon
     style="fill:#efefef;fill-opacity:0.93725491"
     id="polygon25"
     points="423.7,445.6 439.8,429.4 455.9,445.6 467.2,445.6 443.8,422.1 443.8,235.9 439.1,235.9 435.8,235.9 435.8,422.1 412.5,445.6 " /><path
     style="fill:#efefef;fill-opacity:0.93725491"
     inkscape:connector-curvature="0"
     id="path27"
     d="m 88.9,81 81,23.1 C 171,100 134,85.8 87.1,72.4 40.2,58.9 1.1,51.4 0,55.5 l 81,23.1 0,343.5 -23.3,23.5 11.2,0 16.1,-16.1 16.1,16.1 11.2,0 L 89,422.2 89,81 88.9,81 Z" /></svg>